<mxfile host="app.diagrams.net" modified="2024-04-30T09:02:48.236Z" agent="Mozilla/5.0 (Windows NT 10.0; Win64; x64; rv:124.0) Gecko/20100101 Firefox/124.0" etag="KyLlTdrIczm-2HkLVijM" version="24.3.1" type="github">
  <diagram name="Page-1" id="O6B2R55OZhxfZqI_czE0">
    <mxGraphModel dx="840" dy="484" grid="1" gridSize="10" guides="1" tooltips="1" connect="1" arrows="1" fold="1" page="1" pageScale="1" pageWidth="850" pageHeight="1100" math="0" shadow="0">
      <root>
        <mxCell id="0" />
        <mxCell id="1" parent="0" />
        <mxCell id="JaBu_I75zH1oVb4ZYvn0-17" style="edgeStyle=orthogonalEdgeStyle;rounded=0;orthogonalLoop=1;jettySize=auto;html=1;exitX=0.5;exitY=1;exitDx=0;exitDy=0;entryX=0.5;entryY=0;entryDx=0;entryDy=0;" parent="1" source="JaBu_I75zH1oVb4ZYvn0-2" target="JaBu_I75zH1oVb4ZYvn0-3" edge="1">
          <mxGeometry relative="1" as="geometry">
            <Array as="points">
              <mxPoint x="253" y="570" />
              <mxPoint x="208" y="570" />
            </Array>
          </mxGeometry>
        </mxCell>
        <mxCell id="JaBu_I75zH1oVb4ZYvn0-2" value="sRESET&lt;div&gt;&lt;br/&gt;&lt;/div&gt;" style="ellipse;whiteSpace=wrap;html=1;aspect=fixed;" parent="1" vertex="1">
          <mxGeometry x="192.92000000000002" y="340" width="120" height="120" as="geometry" />
        </mxCell>
        <mxCell id="JaBu_I75zH1oVb4ZYvn0-18" style="edgeStyle=orthogonalEdgeStyle;rounded=0;orthogonalLoop=1;jettySize=auto;html=1;exitX=1;exitY=0.5;exitDx=0;exitDy=0;entryX=0;entryY=0.5;entryDx=0;entryDy=0;" parent="1" source="JaBu_I75zH1oVb4ZYvn0-3" target="JaBu_I75zH1oVb4ZYvn0-4" edge="1">
          <mxGeometry relative="1" as="geometry" />
        </mxCell>
        <mxCell id="JaBu_I75zH1oVb4ZYvn0-3" value="sIR_LOAD" style="ellipse;whiteSpace=wrap;html=1;aspect=fixed;" parent="1" vertex="1">
          <mxGeometry x="147.92000000000002" y="620" width="120" height="120" as="geometry" />
        </mxCell>
        <mxCell id="JaBu_I75zH1oVb4ZYvn0-19" style="edgeStyle=orthogonalEdgeStyle;rounded=0;orthogonalLoop=1;jettySize=auto;html=1;exitX=1;exitY=0.5;exitDx=0;exitDy=0;entryX=0;entryY=0.5;entryDx=0;entryDy=0;" parent="1" source="JaBu_I75zH1oVb4ZYvn0-4" target="JaBu_I75zH1oVb4ZYvn0-5" edge="1">
          <mxGeometry relative="1" as="geometry" />
        </mxCell>
        <mxCell id="JaBu_I75zH1oVb4ZYvn0-26" style="edgeStyle=orthogonalEdgeStyle;rounded=0;orthogonalLoop=1;jettySize=auto;html=1;exitX=0.5;exitY=0;exitDx=0;exitDy=0;entryX=1;entryY=1;entryDx=0;entryDy=0;" parent="1" source="JaBu_I75zH1oVb4ZYvn0-4" target="JaBu_I75zH1oVb4ZYvn0-2" edge="1">
          <mxGeometry relative="1" as="geometry" />
        </mxCell>
        <mxCell id="JaBu_I75zH1oVb4ZYvn0-4" value="sIR_DECODE" style="ellipse;whiteSpace=wrap;html=1;aspect=fixed;" parent="1" vertex="1">
          <mxGeometry x="392.92" y="620" width="120" height="120" as="geometry" />
        </mxCell>
        <mxCell id="JaBu_I75zH1oVb4ZYvn0-22" style="edgeStyle=orthogonalEdgeStyle;rounded=0;orthogonalLoop=1;jettySize=auto;html=1;exitX=0.5;exitY=1;exitDx=0;exitDy=0;entryX=0.5;entryY=1;entryDx=0;entryDy=0;" parent="1" source="JaBu_I75zH1oVb4ZYvn0-5" target="JaBu_I75zH1oVb4ZYvn0-3" edge="1">
          <mxGeometry relative="1" as="geometry">
            <Array as="points">
              <mxPoint x="730" y="820" />
              <mxPoint x="208" y="820" />
            </Array>
          </mxGeometry>
        </mxCell>
        <mxCell id="JaBu_I75zH1oVb4ZYvn0-29" style="edgeStyle=orthogonalEdgeStyle;rounded=0;orthogonalLoop=1;jettySize=auto;html=1;exitX=0.5;exitY=0;exitDx=0;exitDy=0;entryX=1;entryY=0.5;entryDx=0;entryDy=0;" parent="1" source="JaBu_I75zH1oVb4ZYvn0-5" target="JaBu_I75zH1oVb4ZYvn0-2" edge="1">
          <mxGeometry relative="1" as="geometry" />
        </mxCell>
        <mxCell id="JaBu_I75zH1oVb4ZYvn0-39" value="reset_i = &#39;0&#39;" style="edgeLabel;html=1;align=center;verticalAlign=middle;resizable=0;points=[];" parent="JaBu_I75zH1oVb4ZYvn0-29" vertex="1" connectable="0">
          <mxGeometry x="0.3933" y="1" relative="1" as="geometry">
            <mxPoint x="5" y="-1" as="offset" />
          </mxGeometry>
        </mxCell>
        <mxCell id="JaBu_I75zH1oVb4ZYvn0-5" value="sOPCODE_DECODE" style="ellipse;whiteSpace=wrap;html=1;aspect=fixed;" parent="1" vertex="1">
          <mxGeometry x="670" y="620" width="120" height="120" as="geometry" />
        </mxCell>
        <mxCell id="JaBu_I75zH1oVb4ZYvn0-16" value="" style="edgeStyle=orthogonalEdgeStyle;rounded=0;orthogonalLoop=1;jettySize=auto;html=1;entryX=0.5;entryY=0;entryDx=0;entryDy=0;" parent="1" source="JaBu_I75zH1oVb4ZYvn0-7" target="JaBu_I75zH1oVb4ZYvn0-2" edge="1">
          <mxGeometry relative="1" as="geometry">
            <Array as="points">
              <mxPoint x="252.92000000000002" y="260" />
            </Array>
          </mxGeometry>
        </mxCell>
        <mxCell id="JaBu_I75zH1oVb4ZYvn0-7" value="reset_i = &#39;0&#39;" style="text;html=1;align=center;verticalAlign=middle;resizable=0;points=[];autosize=1;strokeColor=none;fillColor=none;" parent="1" vertex="1">
          <mxGeometry x="147.92000000000002" y="250" width="80" height="30" as="geometry" />
        </mxCell>
        <mxCell id="JaBu_I75zH1oVb4ZYvn0-47" style="edgeStyle=orthogonalEdgeStyle;rounded=0;orthogonalLoop=1;jettySize=auto;html=1;entryX=1;entryY=0;entryDx=0;entryDy=0;" parent="1" source="JaBu_I75zH1oVb4ZYvn0-23" target="JaBu_I75zH1oVb4ZYvn0-2" edge="1">
          <mxGeometry relative="1" as="geometry">
            <Array as="points">
              <mxPoint x="337.92" y="225" />
              <mxPoint x="337.92" y="358" />
            </Array>
          </mxGeometry>
        </mxCell>
        <mxCell id="JaBu_I75zH1oVb4ZYvn0-23" value="others" style="text;html=1;align=center;verticalAlign=middle;resizable=0;points=[];autosize=1;strokeColor=none;fillColor=none;" parent="1" vertex="1">
          <mxGeometry x="457.92" y="210" width="60" height="30" as="geometry" />
        </mxCell>
        <mxCell id="JaBu_I75zH1oVb4ZYvn0-27" style="edgeStyle=orthogonalEdgeStyle;rounded=0;orthogonalLoop=1;jettySize=auto;html=1;exitX=0;exitY=0.5;exitDx=0;exitDy=0;entryX=0;entryY=1;entryDx=0;entryDy=0;" parent="1" source="JaBu_I75zH1oVb4ZYvn0-3" target="JaBu_I75zH1oVb4ZYvn0-2" edge="1">
          <mxGeometry relative="1" as="geometry">
            <Array as="points">
              <mxPoint x="80" y="680" />
              <mxPoint x="80" y="500" />
              <mxPoint x="210" y="500" />
            </Array>
          </mxGeometry>
        </mxCell>
        <mxCell id="JaBu_I75zH1oVb4ZYvn0-40" value="reset_i = &#39;0&#39;" style="edgeLabel;html=1;align=center;verticalAlign=middle;resizable=0;points=[];" parent="1" vertex="1" connectable="0">
          <mxGeometry x="367.92" y="540" as="geometry" />
        </mxCell>
        <mxCell id="JaBu_I75zH1oVb4ZYvn0-42" value="reset_i = &#39;0&#39;" style="edgeLabel;html=1;align=center;verticalAlign=middle;resizable=0;points=[];" parent="1" vertex="1" connectable="0">
          <mxGeometry x="140" y="500" as="geometry" />
        </mxCell>
        <mxCell id="JaBu_I75zH1oVb4ZYvn0-43" value="reset_i = &#39;1&#39;" style="edgeLabel;html=1;align=center;verticalAlign=middle;resizable=0;points=[];rotation=-90;" parent="1" vertex="1" connectable="0">
          <mxGeometry x="252.92000000000002" y="510" as="geometry" />
        </mxCell>
        <mxCell id="JaBu_I75zH1oVb4ZYvn0-44" value="reset_i = &#39;1&#39;" style="edgeLabel;html=1;align=center;verticalAlign=middle;resizable=0;points=[];rotation=0;" parent="1" vertex="1" connectable="0">
          <mxGeometry x="330" y="680" as="geometry" />
        </mxCell>
        <mxCell id="JaBu_I75zH1oVb4ZYvn0-45" value="reset_i = &#39;1&#39;" style="edgeLabel;html=1;align=center;verticalAlign=middle;resizable=0;points=[];rotation=0;" parent="1" vertex="1" connectable="0">
          <mxGeometry x="580" y="680" as="geometry" />
        </mxCell>
        <mxCell id="JaBu_I75zH1oVb4ZYvn0-46" value="reset_i = &#39;1&#39;" style="edgeLabel;html=1;align=center;verticalAlign=middle;resizable=0;points=[];rotation=0;" parent="1" vertex="1" connectable="0">
          <mxGeometry x="437.92" y="890" as="geometry" />
        </mxCell>
        <mxCell id="FmckzHXFktqqCb5J5M8A-1" value="sINTERRUPT" style="ellipse;whiteSpace=wrap;html=1;aspect=fixed;" vertex="1" parent="1">
          <mxGeometry x="520" y="450" width="120" height="120" as="geometry" />
        </mxCell>
        <mxCell id="FmckzHXFktqqCb5J5M8A-182" style="edgeStyle=orthogonalEdgeStyle;rounded=0;orthogonalLoop=1;jettySize=auto;html=1;exitX=0;exitY=0;exitDx=0;exitDy=0;entryX=1;entryY=0.5;entryDx=0;entryDy=0;" edge="1" parent="1" source="JaBu_I75zH1oVb4ZYvn0-5" target="FmckzHXFktqqCb5J5M8A-1">
          <mxGeometry relative="1" as="geometry">
            <mxPoint x="505" y="648" as="sourcePoint" />
            <mxPoint x="590" y="580" as="targetPoint" />
            <Array as="points">
              <mxPoint x="688" y="640" />
              <mxPoint x="660" y="640" />
              <mxPoint x="660" y="510" />
            </Array>
          </mxGeometry>
        </mxCell>
        <mxCell id="FmckzHXFktqqCb5J5M8A-183" value="interrupt" style="edgeLabel;html=1;align=center;verticalAlign=middle;resizable=0;points=[];" vertex="1" connectable="0" parent="FmckzHXFktqqCb5J5M8A-182">
          <mxGeometry x="-0.0975" relative="1" as="geometry">
            <mxPoint as="offset" />
          </mxGeometry>
        </mxCell>
        <mxCell id="FmckzHXFktqqCb5J5M8A-184" style="edgeStyle=orthogonalEdgeStyle;rounded=0;orthogonalLoop=1;jettySize=auto;html=1;exitX=0.5;exitY=0;exitDx=0;exitDy=0;entryX=0.979;entryY=0.693;entryDx=0;entryDy=0;entryPerimeter=0;" edge="1" parent="1" source="FmckzHXFktqqCb5J5M8A-1" target="JaBu_I75zH1oVb4ZYvn0-2">
          <mxGeometry relative="1" as="geometry">
            <mxPoint x="740" y="630" as="sourcePoint" />
            <mxPoint x="323" y="410" as="targetPoint" />
          </mxGeometry>
        </mxCell>
        <mxCell id="FmckzHXFktqqCb5J5M8A-185" value="reset_i = &#39;0&#39;" style="edgeLabel;html=1;align=center;verticalAlign=middle;resizable=0;points=[];" vertex="1" connectable="0" parent="FmckzHXFktqqCb5J5M8A-184">
          <mxGeometry x="0.3933" y="1" relative="1" as="geometry">
            <mxPoint x="5" y="-1" as="offset" />
          </mxGeometry>
        </mxCell>
        <mxCell id="FmckzHXFktqqCb5J5M8A-186" style="edgeStyle=orthogonalEdgeStyle;rounded=0;orthogonalLoop=1;jettySize=auto;html=1;exitX=0.5;exitY=1;exitDx=0;exitDy=0;entryX=1;entryY=0;entryDx=0;entryDy=0;" edge="1" parent="1" source="FmckzHXFktqqCb5J5M8A-1" target="JaBu_I75zH1oVb4ZYvn0-3">
          <mxGeometry relative="1" as="geometry">
            <mxPoint x="590" y="460" as="sourcePoint" />
            <mxPoint x="320" y="433" as="targetPoint" />
          </mxGeometry>
        </mxCell>
        <mxCell id="FmckzHXFktqqCb5J5M8A-187" value="&lt;div&gt;reset_i = &#39;1&#39;&lt;/div&gt;" style="edgeLabel;html=1;align=center;verticalAlign=middle;resizable=0;points=[];" vertex="1" connectable="0" parent="FmckzHXFktqqCb5J5M8A-186">
          <mxGeometry x="0.3933" y="1" relative="1" as="geometry">
            <mxPoint x="5" y="-1" as="offset" />
          </mxGeometry>
        </mxCell>
      </root>
    </mxGraphModel>
  </diagram>
</mxfile>
